<svg width="27" height="27" viewBox="0 0 27 27" fill="none" xmlns="http://www.w3.org/2000/svg">
<circle cx="13.5" cy="13.5" r="13.5" fill="#F06E66"/>
<path d="M7.4 17.5999C6.95817 17.9313 6.86863 18.5581 7.2 18.9999C7.53137 19.4417 8.15817 19.5313 8.6 19.1999L7.4 17.5999ZM20.1899 10.1413C20.2681 9.59459 19.8882 9.08806 19.3414 9.00995L10.4319 7.73716C9.88514 7.65906 9.37861 8.03895 9.3005 8.58569C9.2224 9.13242 9.6023 9.63895 10.149 9.71706L18.0686 10.8484L16.9373 18.768C16.8592 19.3148 17.2391 19.8213 17.7858 19.8994C18.3325 19.9775 18.8391 19.5976 18.9172 19.0509L20.1899 10.1413ZM8.6 19.1999L19.8 10.7999L18.6 9.1999L7.4 17.5999L8.6 19.1999Z" fill="white"/>
</svg>
